<svg width="25" height="24" viewBox="0 0 25 24" fill="none" xmlns="http://www.w3.org/2000/svg">
<path d="M12.0081 10.8933L12.6211 9.13861L13.2577 10.8933H12.7744L12.8687 12.6244H12.3382L12.4207 10.8933H12.0081Z" fill="white"/>
<path d="M12.8677 13.1539H12.3372L12.2664 14.8615H12.9855L12.8677 13.1539Z" fill="white"/>
<path d="M8.5487 11.8171C9.83272 10.0877 10.7414 9.13752 12.4597 7.90184C12.5825 7.81348 12.7499 7.81547 12.8711 7.90683C14.5486 9.17178 15.4699 10.0971 16.7643 11.7947C16.8598 11.9201 16.8589 12.0946 16.762 12.2182C15.5528 13.7617 14.5843 14.6774 12.8678 16.094C12.7429 16.1971 12.5625 16.2013 12.4335 16.104C10.6594 14.7661 9.71628 13.8507 8.54507 12.2261C8.45729 12.1042 8.45876 11.9383 8.5487 11.8171Z" stroke="white" stroke-width="0.19808"/>
<path fill-rule="evenodd" clip-rule="evenodd" d="M12.6195 24C19.3129 24 24.7389 18.6274 24.7389 12C24.7389 5.37257 19.3129 0 12.6195 0C5.92609 0 0.5 5.37257 0.5 12C0.5 18.6274 5.92609 24 12.6195 24ZM13.7389 0.306031H11.499V3.05836C9.87603 3.25624 8.38574 3.88251 7.14521 4.82037L5.19551 2.87283L3.61161 4.45497L5.53895 6.38015C4.57685 7.57811 3.91435 9.02582 3.66477 10.6103H0.901174V12.8478H3.59177C3.74619 14.5507 4.37443 16.1173 5.34393 17.4152L3.28221 19.4746L4.86611 21.0568L6.89471 19.0304C8.18294 20.0771 9.76522 20.7774 11.499 20.9888V23.7172H13.7389V20.9863C15.4351 20.7756 16.9857 20.0968 18.2566 19.0837L20.1842 21.0092L21.7682 19.4271L19.8223 17.4834C20.821 16.1722 21.4687 14.5806 21.6258 12.8478H24.3384V10.6103H21.5528C21.2987 8.99661 20.6162 7.52473 19.6251 6.31416L21.4388 4.50255L19.8548 2.92041L18.004 4.76917C16.7825 3.86358 15.3243 3.25777 13.7389 3.06085V0.306031Z" fill="white"/>
<path fill-rule="evenodd" clip-rule="evenodd" d="M12.6202 19.3365C16.6701 19.3365 19.9532 16.057 19.9532 12.0117C19.9532 7.96625 16.6701 4.68683 12.6202 4.68683C8.57029 4.68683 5.28723 7.96625 5.28723 12.0117C5.28723 16.057 8.57029 19.3365 12.6202 19.3365ZM7.36005 11.6488C7.11407 11.8387 7.11013 12.2104 7.35316 12.4041C9.41778 14.0492 10.6203 15.2734 12.2344 17.4168C12.4237 17.6683 12.803 17.6706 12.9954 17.4215C15.061 14.7481 16.3067 13.4837 17.9404 12.4891C18.2364 12.3089 18.2649 11.8815 17.9882 11.673C15.7743 10.005 14.5865 8.78339 13.1949 6.73982C13.0182 6.4804 12.6418 6.45581 12.4362 6.69301C10.4815 8.94761 9.23239 10.2036 7.36005 11.6488Z" fill="white"/>
<path d="M14.6721 11.5408L14.4834 11.635C15.0964 11.8352 15.6387 12.8833 12.7975 13.0128C9.95629 13.1423 9.53186 11.6232 11.4889 11.2346L11.9723 11.5997C10.9258 11.9388 10.8641 12.3887 11.595 12.5417C12.462 12.7786 13.0168 12.7768 14.1179 12.5417C14.8135 12.2827 14.6249 11.8705 14.1179 11.6939L13.7643 11.7881L13.5992 11.2582L14.6721 11.5408Z" fill="white"/>
</svg>
