<svg width="141" height="35" viewBox="0 0 141 35" fill="none" xmlns="http://www.w3.org/2000/svg">
<path d="M16.5708 15.5671L17.4535 13.0596L18.3703 15.5671H17.6743L17.8101 18.041H17.0462L17.165 15.5671H16.5708Z" fill="white"/>
<path d="M17.8086 18.7976H17.0447L16.9428 21.2378H17.9783L17.8086 18.7976Z" fill="white"/>
<path d="M11.5895 16.8873C13.4384 14.4158 14.7468 13.058 17.221 11.2922C17.398 11.1659 17.639 11.1687 17.8134 11.2993C20.229 13.107 21.5556 14.4293 23.4194 16.8553C23.557 17.0344 23.5557 17.2838 23.4162 17.4605C21.6749 19.6662 20.2805 20.9748 17.8088 22.9992C17.6289 23.1465 17.3691 23.1525 17.1834 23.0135C14.6288 21.1016 13.2707 19.7934 11.5843 17.4717C11.4579 17.2976 11.46 17.0605 11.5895 16.8873Z" stroke="white" stroke-width="0.37833"/>
<path fill-rule="evenodd" clip-rule="evenodd" d="M17.4513 34.2973C27.0893 34.2973 34.9025 26.6196 34.9025 17.1486C34.9025 7.6777 27.0893 0 17.4513 0C7.81322 0 0 7.6777 0 17.1486C0 26.6196 7.81322 34.2973 17.4513 34.2973ZM19.0632 0.437334H15.8378V4.37056C13.5009 4.65334 11.355 5.54831 9.56867 6.88857L6.76123 4.10543L4.48051 6.3664L7.25576 9.11757C5.8704 10.8295 4.91644 12.8984 4.55706 15.1627H0.577665V18.3601H4.45195C4.6743 20.7938 5.57892 23.0325 6.97494 24.8872L4.0062 27.8303L6.28692 30.0913L9.20796 27.1954C11.0629 28.6913 13.3413 29.692 15.8378 29.9941V33.8932H19.0632V29.9905C21.5056 29.6895 23.7383 28.7195 25.5684 27.2716L28.344 30.0232L30.6248 27.7623L27.8229 24.9847C29.2609 23.111 30.1936 20.8365 30.4198 18.3601H34.3258V15.1627H30.3147C29.9487 12.8566 28.966 10.7532 27.5389 9.02328L30.1505 6.43439L27.8697 4.17342L25.2047 6.8154C23.4457 5.52126 21.3461 4.65554 19.0632 4.37411V0.437334Z" fill="white"/>
<path fill-rule="evenodd" clip-rule="evenodd" d="M17.4522 27.633C23.2838 27.633 28.0113 22.9464 28.0113 17.1654C28.0113 11.3842 23.2838 6.69776 17.4522 6.69776C11.6206 6.69776 6.89322 11.3842 6.89322 17.1654C6.89322 22.9464 11.6206 27.633 17.4522 27.633ZM9.87795 16.6468C9.52375 16.9181 9.51807 17.4494 9.86803 17.7261C12.8409 20.077 14.5725 21.8265 16.8967 24.8895C17.1693 25.2489 17.7154 25.2522 17.9925 24.8963C20.9669 21.0758 22.7605 19.2689 25.1129 17.8477C25.5392 17.5901 25.5803 16.9794 25.1818 16.6814C21.9939 14.2977 20.2836 12.552 18.2798 9.63159C18.0254 9.26087 17.4833 9.22574 17.1873 9.5647C14.3727 12.7867 12.574 14.5816 9.87795 16.6468Z" fill="white"/>
<path d="M20.4068 16.4925L20.1352 16.6271C21.0179 16.9132 21.7988 18.411 17.7076 18.5961C13.6164 18.7812 13.0053 16.6103 15.8233 16.0549L16.5193 16.5766C15.0124 17.0612 14.9235 17.7041 15.9761 17.9229C17.2244 18.2614 18.0233 18.2588 19.6089 17.9229C20.6105 17.5527 20.3389 16.9636 19.6089 16.7112L19.0997 16.8459L18.862 16.0886L20.4068 16.4925Z" fill="white"/>
<path d="M42.4975 22.8609V11.2293H45.1842V22.8609H42.4975ZM55.3382 20.5018V22.8609H47.1633V11.2293H55.1908V13.5884H49.85V15.8492H54.4372V18.0281H49.85V20.5018H55.3382ZM64.8996 20.5018V22.8609H56.7247V11.2293H64.7522V13.5884H59.4114V15.8492H63.9986V18.0281H59.4114V20.5018H64.8996ZM74.461 20.5018V22.8609H66.2861V11.2293H74.3136V13.5884H68.9728V15.8492H73.56V18.0281H68.9728V20.5018H74.461ZM81.862 11.2293H84.7617L88.759 22.8609H86.0068L85.1057 20.2561H81.4852L80.6005 22.8609H77.8482L81.862 11.2293ZM84.6634 18.4049L83.3036 13.9324L81.9111 18.4049H84.6634ZM89.6588 22.8609V11.2293H94.0002C95.278 11.2293 96.3429 11.4914 97.1948 12.0157C98.0576 12.529 98.7074 13.228 99.1443 14.1126C99.5812 14.9864 99.7996 15.9584 99.7996 17.0287C99.7996 18.2083 99.5593 19.2349 99.0788 20.1086C98.5982 20.9824 97.9211 21.6595 97.0473 22.1401C96.1845 22.6206 95.1688 22.8609 94.0002 22.8609H89.6588ZM97.0637 17.0287C97.0637 16.0021 96.7961 15.172 96.261 14.5386C95.7258 13.9051 94.9722 13.5884 94.0002 13.5884H92.3455V20.5018H94.0002C94.6555 20.5018 95.2125 20.3544 95.6712 20.0595C96.1299 19.7537 96.4739 19.3387 96.7033 18.8144C96.9436 18.2902 97.0637 17.6949 97.0637 17.0287ZM106.071 22.9428C105.307 22.9428 104.586 22.8008 103.909 22.5169C103.242 22.222 102.647 21.8124 102.123 21.2882C101.61 20.753 101.206 20.125 100.911 19.4042C100.627 18.6724 100.485 17.8588 100.485 16.9632C100.485 16.155 100.627 15.4014 100.911 14.7024C101.206 14.0034 101.615 13.3863 102.139 12.8512C102.675 12.316 103.292 11.901 103.991 11.6061C104.701 11.3003 105.465 11.1474 106.284 11.1474C107.354 11.1474 108.294 11.3767 109.102 11.8354C109.921 12.2942 110.533 12.9112 110.937 13.6867L108.938 15.1939C108.676 14.6806 108.294 14.2764 107.791 13.9816C107.289 13.6867 106.754 13.5392 106.186 13.5392C105.596 13.5392 105.077 13.6976 104.63 14.0143C104.182 14.3201 103.832 14.7406 103.581 15.2758C103.33 15.8109 103.204 16.4062 103.204 17.0615C103.204 17.7277 103.335 18.3284 103.597 18.8636C103.86 19.3878 104.22 19.8028 104.679 20.1086C105.148 20.4035 105.689 20.551 106.301 20.551C107.349 20.551 108.294 20.0704 109.135 19.1093V18.7325H106.874V16.783H111.363V22.8609H109.135V21.7141C108.25 22.5333 107.229 22.9428 106.071 22.9428ZM112.893 22.8609V11.2293H115.58V22.8609H112.893ZM126.422 13.5884H122.883V22.8609H120.197V13.5884H116.642V11.2293H126.422V13.5884ZM136.663 22.8609V15.9311L134.156 20.9769H132.682L130.175 15.9311V22.8609H127.488V11.2293H130.405L133.419 17.3072L136.45 11.2293H139.349V22.8609H136.663Z" fill="white"/>
</svg>
